<svg width="40" height="40" viewBox="0 0 40 40" fill="none" xmlns="http://www.w3.org/2000/svg">
<g clip-path="url(#clip0_501_235)">
<path d="M0 34.5961C1.5 34.5961 1.09756 31.9658 1.7561 32.0489C2.41463 32.132 2.84146 34 3.5 34C4.15854 34 5 31 5.5 24.5C6 18 6.26829 12.2783 7.14634 11.8559C8.02439 11.4334 7.90095 21.6494 8.5 21C8.82344 20.6494 9.12195 5.51956 9.78049 5.02674C10.439 4.53392 10.6585 11.011 11.0976 11.4334C11.5366 11.8559 11.6779 7.71964 11.9756 8.96933C12.4101 10.7935 11.622 30.5 12.5 30.5C13.378 30.5 14.3415 23.5 15 23.5C15.6585 23.5 15.5 32.0489 16.5 30.5C17.5 28.9511 17 35 18 35C19 35 19.8221 33.5 20 31.5C20.439 26.5647 21.122 19.8114 22 19.8114C22.878 19.8114 22.9293 24.2375 23.3683 24.2375C23.8073 24.2375 24.122 10.5 25 10.5C25.878 10.5 26.25 34.5961 28.5 34.5961C30.75 34.5961 30.4463 7 31.5 7C32.8171 7 32.0488 18.8115 33.3659 18.8115C34.6829 18.8115 34.622 14 35.5 14C36.378 14 37 34.5961 40 34.5961" stroke="#888" stroke-width="1"/>
</g>
<defs>
<clipPath id="clip0_501_235">
<rect width="40" height="40" fill="white"/>
</clipPath>
</defs>
</svg>
